<svg width="75" height="63" viewBox="0 0 75 63" fill="none" xmlns="http://www.w3.org/2000/svg">
<path d="M23 31.2C25.9333 32.4 28.2 34.3333 29.8 37C31.5333 39.5333 32.4 42.6 32.4 46.2C32.4 51 30.8667 54.9333 27.8 58C24.7333 61.0667 20.9333 62.6 16.4 62.6C11.6 62.6 7.66667 61.0667 4.6 58C1.53333 54.9333 5.66244e-07 51 5.66244e-07 46.2C5.66244e-07 43.8 0.266667 41.4667 0.800001 39.2C1.46667 36.9333 2.66667 33.5333 4.4 29L15 0.599991H31L23 31.2ZM65.4 31.2C68.3333 32.4 70.6 34.3333 72.2 37C73.9333 39.5333 74.8 42.6 74.8 46.2C74.8 51 73.2667 54.9333 70.2 58C67.1333 61.0667 63.3333 62.6 58.8 62.6C54 62.6 50.0667 61.0667 47 58C43.9333 54.9333 42.4 51 42.4 46.2C42.4 43.8 42.6667 41.4667 43.2 39.2C43.8667 36.9333 45.0667 33.5333 46.8 29L57.4 0.599991H73.4L65.4 31.2Z" fill="black"/>
</svg>
